# xmcd
#
# Track frame offsets: 
#        150
#        23978
#        42802
#        56853
#        76013
#        102927
#        122451
#        143976
#        176070
#        191353
#        215035
#        236677
#        262199
#        284277
#        296937
#
# Disc length: 4275 seconds
#
# Revision: 0
# Processed by: cddbd v1.5.2PL0 Copyright (c) Steve Scherf et al.
# Submitted via: ExactAudioCopy v1.3
#
DISCID=e510b10f
DTITLE=Van Morrison and Joey DeFrancesco - You're Driving Me Crazy
DYEAR=2018
DGENRE=Soul
TTITLE0=Miss Otis Regrets
TTITLE1=Hold It Right There
TTITLE2=All Saints Day
TTITLE3=The Way Young Lovers Do
TTITLE4=The Thing I Used to Do
TTITLE5=Traveling Light
TTITLE6=Close Enough for Jazz
TTITLE7=Goldfish Bowl
TTITLE8=Evening Shadows
TTITLE9=Magic Time
TTITLE10=You're Driving Me Crazy
TTITLE11=Every Day I Have the Blues
TTITLE12=Have I Told You Lately
TTITLE13=Sticks and Stones
TTITLE14=Celtic Swing
EXTD=
EXTT0=
EXTT1=
EXTT2=
EXTT3=
EXTT4=
EXTT5=
EXTT6=
EXTT7=
EXTT8=
EXTT9=
EXTT10=
EXTT11=
EXTT12=
EXTT13=
EXTT14=
PLAYORDER=
